# Blender v2.69 (sub 0) OBJ File: 'walk_bot.blend'
# www.blender.org
o Cube.004
v 0.200000 3.300000 -0.200000
v 0.200000 3.300000 0.200000
v -0.200000 3.300000 0.200000
v -0.200000 3.300000 -0.200000
v 0.200000 5.200000 -0.200000
v 0.200000 5.200000 0.200000
v -0.200000 5.200000 0.200000
v -0.200000 5.200000 -0.200000
vt 0.541429 0.442629
vt 0.496797 0.414675
vt 0.583096 0.413748
vt 0.427412 0.651290
vt 0.383799 0.608604
vt 0.470098 0.607677
vt 0.532706 0.651290
vt 0.483412 0.373864
vt 0.434188 0.371062
vt 0.425466 0.579723
vt 0.373033 0.371062
vt 0.593861 0.651290
vt 0.539483 0.371062
vt 0.483482 0.648487
vn 0.000000 -1.000000 0.000000
vn 0.000000 1.000000 0.000000
vn 1.000000 -0.000000 0.000000
vn -0.000000 -0.000000 1.000000
vn -1.000000 -0.000000 -0.000000
vn 0.000000 0.000000 -1.000000
vn 0.000000 -1.000000 0.000001
vn 0.000000 1.000000 0.000003
vn -0.000001 0.000000 1.000000
s off
f 1/1/1 2/2/1 4/3/1
f 5/4/2 8/5/2 6/6/2
f 1/1/3 5/7/3 2/2/3
f 2/8/4 6/6/4 3/9/4
f 3/9/5 7/10/5 4/11/5
f 5/7/6 1/1/6 8/12/6
f 2/2/7 3/13/7 4/3/7
f 8/5/8 7/10/8 6/6/8
f 5/7/3 6/14/3 2/2/3
f 6/6/9 7/10/9 3/9/9
f 7/10/5 8/5/5 4/11/5
f 1/1/6 4/3/6 8/12/6
o Cube
v 0.700000 2.054208 -1.057754
v 0.700000 1.845468 -0.716540
v 0.300000 1.845468 -0.716540
v 0.300000 2.054208 -1.057755
v 0.700000 3.674978 -0.066237
v 0.700000 3.466237 0.274978
v 0.300000 3.466237 0.274977
v 0.300000 3.674978 -0.066237
vt 0.692114 0.026736
vt 0.754778 0.088068
vt 0.630782 0.089400
vt 0.845679 0.326542
vt 0.909805 0.366708
vt 0.785810 0.368039
vt 0.858212 0.026736
vt 0.770345 0.026736
vt 0.770244 0.429371
vt 0.694909 0.129565
vt 0.682376 0.429371
vt 0.848473 0.429371
vt 0.611651 0.425344
vt 0.928938 0.030764
vn 0.000000 -0.853036 -0.521851
vn -0.000000 0.853035 0.521853
vn 1.000000 -0.000000 -0.000000
vn -0.000000 -0.521851 0.853037
vn -1.000000 0.000000 -0.000000
vn 0.000000 0.521851 -0.853037
vn 0.000000 -0.853037 -0.521851
vn -0.000000 0.853037 0.521851
vn -0.000000 -0.521851 0.853036
vn 0.000000 0.521851 -0.853036
s off
f 9/15/10 10/16/10 12/17/10
f 13/18/11 16/19/11 14/20/11
f 9/21/12 13/18/12 10/22/12
f 10/16/13 14/23/13 11/24/13
f 11/24/14 15/25/14 12/17/14
f 13/18/15 9/21/15 16/19/15
f 10/16/16 11/24/16 12/17/16
f 16/19/17 15/26/17 14/20/17
f 13/18/12 14/20/12 10/22/12
f 14/23/18 15/25/18 11/24/18
f 15/25/14 16/27/14 12/17/14
f 9/21/19 12/28/19 16/19/19
o Cube.003
v 0.720000 0.622516 -2.161175
v 0.720000 0.358766 -1.808988
v 0.280000 0.358766 -1.808988
v 0.280000 0.622516 -2.161175
v 0.720000 2.295407 -0.908364
v 0.720000 2.031657 -0.556176
v 0.280000 2.031657 -0.556176
v 0.280000 2.295407 -0.908364
vt 0.108231 0.022388
vt 0.164131 0.077100
vt 0.053519 0.078288
vt 0.245221 0.289835
vt 0.302427 0.325666
vt 0.191814 0.326853
vt 0.256402 0.022388
vt 0.178018 0.022388
vt 0.177928 0.381566
vt 0.110724 0.114118
vt 0.099544 0.381566
vt 0.247714 0.381566
vt 0.036452 0.377973
vt 0.319494 0.025981
vn 0.000000 -0.800426 -0.599431
vn -0.000000 0.800426 0.599431
vn 1.000000 0.000000 -0.000000
vn 0.000000 -0.599432 0.800426
vn -1.000000 0.000000 -0.000000
vn 0.000001 0.599431 -0.800426
vn 0.000000 0.800426 0.599432
vn -0.000001 -0.599431 0.800426
vn 0.000000 0.599431 -0.800426
s off
f 17/29/20 18/30/20 20/31/20
f 21/32/21 24/33/21 22/34/21
f 17/35/22 21/32/22 18/36/22
f 18/30/23 22/37/23 19/38/23
f 19/38/24 23/39/24 20/31/24
f 21/32/25 17/35/25 24/33/25
f 18/30/20 19/38/20 20/31/20
f 24/33/26 23/40/26 22/34/26
f 21/32/22 22/34/22 18/36/22
f 22/37/27 23/39/27 19/38/27
f 23/39/24 24/41/24 20/31/24
f 17/35/28 20/42/28 24/33/28
o Cube.001
v -0.300000 1.837167 0.698251
v -0.300000 2.041890 1.041891
v -0.700000 2.041890 1.041891
v -0.700000 1.837167 0.698251
v -0.300000 3.469459 -0.274181
v -0.300000 3.674182 0.069459
v -0.700000 3.674181 0.069459
v -0.700000 3.469459 -0.274181
vt 0.268013 0.651957
vt 0.204440 0.612139
vt 0.327364 0.610818
vt 0.105608 0.949172
vt 0.043485 0.888371
vt 0.166409 0.887050
vt 0.255588 0.949173
vt 0.185373 0.554009
vt 0.115260 0.550016
vt 0.102836 0.847232
vt 0.028151 0.550017
vt 0.342696 0.949173
vt 0.265242 0.550016
vt 0.185474 0.945180
vn 0.000000 -0.859101 0.511807
vn 0.000000 0.859101 -0.511806
vn 1.000000 0.000000 0.000000
vn 0.000000 0.511806 0.859101
vn -1.000000 -0.000000 -0.000000
vn 0.000000 -0.511806 -0.859101
vn 0.000000 -0.859100 0.511807
vn -0.000000 0.859102 -0.511805
vn -0.000001 0.511807 0.859101
s off
f 25/43/29 26/44/29 28/45/29
f 29/46/30 32/47/30 30/48/30
f 25/43/31 29/49/31 26/44/31
f 26/50/32 30/48/32 27/51/32
f 27/51/33 31/52/33 28/53/33
f 29/49/34 25/43/34 32/54/34
f 26/44/35 27/55/35 28/45/35
f 32/47/36 31/52/36 30/48/36
f 29/49/31 30/56/31 26/44/31
f 30/48/37 31/52/37 27/51/37
f 31/52/33 32/47/33 28/53/33
f 25/43/34 28/45/34 32/54/34
o Cube.002
v -0.280000 0.565891 -0.398664
v -0.280000 0.315216 -0.037054
v -0.720000 0.315216 -0.037054
v -0.720000 0.565891 -0.398664
v -0.280000 2.283539 0.792044
v -0.280000 2.032864 1.153654
v -0.720000 2.032864 1.153654
v -0.720000 2.283539 0.792044
vt 0.898509 0.709462
vt 0.845696 0.676383
vt 0.947814 0.675286
vt 0.763593 0.956370
vt 0.711985 0.905859
vt 0.814103 0.904762
vt 0.888187 0.956370
vt 0.829857 0.628092
vt 0.771611 0.624776
vt 0.761290 0.871684
vt 0.699246 0.624776
vt 0.960551 0.956370
vt 0.896207 0.624776
vt 0.829940 0.953053
vn 0.000000 -0.821841 -0.569717
vn -0.000000 0.821841 0.569717
vn 1.000000 -0.000000 -0.000000
vn 0.000000 -0.569717 0.821841
vn -1.000000 0.000000 -0.000000
vn 0.000000 0.569717 -0.821841
s off
f 33/57/38 34/58/38 36/59/38
f 37/60/39 40/61/39 38/62/39
f 33/57/40 37/63/40 34/58/40
f 34/64/41 38/62/41 35/65/41
f 35/65/42 39/66/42 36/67/42
f 37/63/43 33/57/43 40/68/43
f 34/58/38 35/69/38 36/59/38
f 40/61/39 39/66/39 38/62/39
f 37/63/40 38/70/40 34/58/40
f 38/62/41 39/66/41 35/65/41
f 39/66/42 40/61/42 36/67/42
f 33/57/43 36/59/43 40/68/43
