# Blender v2.69 (sub 0) OBJ File: 'cube.blend'
# www.blender.org
o Cube
v 1.000000 -1.000000 -1.000000
v 1.000000 -1.000000 1.000000
v -1.000000 -1.000000 1.000000
v -1.000000 -1.000000 -1.000000
v 1.000000 1.000000 -1.000000
v 1.000000 1.000000 1.000000
v -1.000000 1.000000 1.000000
v -1.000000 1.000000 -1.000000
vt 0.294060 0.706480
vt 0.000387 0.644470
vt 0.469504 0.462946
vt 0.828341 0.622364
vt 0.545780 0.497468
vt 0.953237 0.339802
vt 0.356070 1.000154
vt 0.953237 0.030869
vt 0.644303 0.030869
vt 0.698163 0.285943
vt 0.324468 0.207036
vt 0.724306 0.797328
vt 0.144183 0.319149
vt 0.000387 1.000154
vn 0.000000 -1.000000 0.000000
vn 0.000000 1.000000 0.000000
vn 1.000000 -0.000000 0.000000
vn 0.000000 -0.000000 1.000000
vn -1.000000 -0.000000 -0.000000
vn 0.000000 0.000000 -1.000000
vn 1.000000 0.000000 0.000000
s off
f 1/1/1 2/2/1 4/3/1
f 5/4/2 8/5/2 6/6/2
f 1/1/3 5/7/3 2/2/3
f 2/8/4 6/6/4 3/9/4
f 3/9/5 7/10/5 4/11/5
f 5/7/6 1/1/6 8/12/6
f 2/2/1 3/13/1 4/3/1
f 8/5/2 7/10/2 6/6/2
f 5/7/7 6/14/7 2/2/7
f 6/6/4 7/10/4 3/9/4
f 7/10/5 8/5/5 4/11/5
f 1/1/6 4/3/6 8/12/6
